/* XPM */
static char * turntable_xpm[] = {
"64 64 533 2",
"  	c #C5C5C5",
". 	c #C6C6C6",
"+ 	c #C7C7C7",
"@ 	c #C9C9C9",
"# 	c #CACACA",
"$ 	c #CBCBCB",
"% 	c #CCCCCC",
"& 	c #C3C3C3",
"* 	c #C1C1C1",
"= 	c #BFBFBF",
"- 	c #BDBDBD",
"; 	c #BCBCBC",
"> 	c #BABABA",
", 	c #B8B8B8",
"' 	c #B6B6B6",
") 	c #B4B4B4",
"! 	c #B2B2B2",
"~ 	c #B0B0B0",
"{ 	c #AEAEAE",
"] 	c #ACACAC",
"^ 	c #AAAAAA",
"/ 	c #A9A9A9",
"( 	c #A8A8A8",
"_ 	c #A6A6A6",
": 	c #A4A4A4",
"< 	c #A3A3A3",
"[ 	c #A2A2A2",
"} 	c #A1A1A1",
"| 	c #A0A0A0",
"1 	c #9F9F9F",
"2 	c #9E9E9E",
"3 	c #9D9D9D",
"4 	c #9C9C9C",
"5 	c #9B9B9B",
"6 	c #9A9A9A",
"7 	c #999999",
"8 	c #C8C8C8",
"9 	c #CDCDCD",
"0 	c #CECECE",
"a 	c #B9B9B9",
"b 	c #B1B1B1",
"c 	c #AFAFAF",
"d 	c #ADADAD",
"e 	c #ABABAB",
"f 	c #A7A7A7",
"g 	c #A5A5A5",
"h 	c #959595",
"i 	c #919191",
"j 	c #8F8F8F",
"k 	c #909090",
"l 	c #989898",
"m 	c #D0D0D0",
"n 	c #CFCFCF",
"o 	c #8D8D8D",
"p 	c #656565",
"q 	c #5F5F5F",
"r 	c #6A6A6A",
"s 	c #6B6B6B",
"t 	c #5A5A5A",
"u 	c #525252",
"v 	c #545454",
"w 	c #595959",
"x 	c #797979",
"y 	c #B3B3B3",
"z 	c #636363",
"A 	c #777777",
"B 	c #8A8A8A",
"C 	c #7A7A7A",
"D 	c #747474",
"E 	c #D3D3D3",
"F 	c #868686",
"G 	c #686868",
"H 	c #6E6E6E",
"I 	c #6F6F6F",
"J 	c #616161",
"K 	c #585858",
"L 	c #4B4B4B",
"M 	c #474747",
"N 	c #4F4F4F",
"O 	c #4C4C4C",
"P 	c #4D4D4D",
"Q 	c #606060",
"R 	c #787878",
"S 	c #808080",
"T 	c #898989",
"U 	c #979797",
"V 	c #969696",
"W 	c #8B8B8B",
"X 	c #D5D5D5",
"Y 	c #7F7F7F",
"Z 	c #6C6C6C",
"` 	c #535353",
" .	c #7D7D7D",
"..	c #727272",
"+.	c #656464",
"@.	c #565656",
"#.	c #494949",
"$.	c #424242",
"%.	c #444444",
"&.	c #414242",
"*.	c #4E4E4E",
"=.	c #595858",
"-.	c #666666",
";.	c #515151",
">.	c #5E5E5E",
",.	c #7B7B7B",
"'.	c #8E8E8E",
").	c #858585",
"!.	c #D4D4D4",
"~.	c #4A4A4A",
"{.	c #757575",
"].	c #282828",
"^.	c #151515",
"/.	c #151516",
"(.	c #181A1A",
"_.	c #191B1B",
":.	c #1A1D1D",
"<.	c #1A1E1E",
"[.	c #1B2020",
"}.	c #1C2121",
"|.	c #212727",
"1.	c #1F2424",
"2.	c #1F2222",
"3.	c #404141",
"4.	c #626262",
"5.	c #939393",
"6.	c #979897",
"7.	c #8C8B8C",
"8.	c #878787",
"9.	c #848484",
"0.	c #5C5C5C",
"a.	c #161616",
"b.	c #181818",
"c.	c #191919",
"d.	c #1A1A1A",
"e.	c #191A1A",
"f.	c #181919",
"g.	c #1A1C1C",
"h.	c #1C2020",
"i.	c #1D2323",
"j.	c #1F2525",
"k.	c #212626",
"l.	c #212424",
"m.	c #2C2E2E",
"n.	c #545555",
"o.	c #575757",
"p.	c #434343",
"q.	c #8C8C8C",
"r.	c #949594",
"s.	c #7E7E7E",
"t.	c #393939",
"u.	c #171717",
"v.	c #171919",
"w.	c #1B1F1F",
"x.	c #1B2121",
"y.	c #1E2424",
"z.	c #1D2424",
"A.	c #262A2A",
"B.	c #232828",
"C.	c #252D2D",
"D.	c #252828",
"E.	c #3A3A3A",
"F.	c #828282",
"G.	c #949494",
"H.	c #A2A3A2",
"I.	c #7C7C7C",
"J.	c #5D5D5D",
"K.	c #191C1C",
"L.	c #191D1D",
"M.	c #1D2121",
"N.	c #212828",
"O.	c #242727",
"P.	c #484848",
"Q.	c #5D5C5C",
"R.	c #707070",
"S.	c #939493",
"T.	c #A7A8A7",
"U.	c #929292",
"V.	c #8F908F",
"W.	c #242424",
"X.	c #181717",
"Y.	c #1B1E1E",
"Z.	c #202727",
"`.	c #1F2727",
" +	c #1F2626",
".+	c #565555",
"++	c #555555",
"@+	c #888888",
"#+	c #464646",
"$+	c #131313",
"%+	c #171818",
"&+	c #1A1F1F",
"*+	c #1C2222",
"=+	c #212A2A",
"-+	c #242C2C",
";+	c #2B3434",
">+	c #242929",
",+	c #767676",
"'+	c #B7B7B7",
")+	c #A5A4A5",
"!+	c #363636",
"~+	c #161717",
"{+	c #191E1E",
"]+	c #262E2E",
"^+	c #2B3535",
"/+	c #384343",
"(+	c #303839",
"_+	c #414141",
":+	c #2E2E2E",
"<+	c #161919",
"[+	c #171A1A",
"}+	c #1F2828",
"|+	c #212929",
"1+	c #2D3838",
"2+	c #444F4F",
"3+	c #5B6666",
"4+	c #5A6060",
"5+	c #474848",
"6+	c #646464",
"7+	c #909190",
"8+	c #1C1C1C",
"9+	c #3E3E3E",
"0+	c #1E2626",
"a+	c #1E2525",
"b+	c #293232",
"c+	c #2D3636",
"d+	c #384242",
"e+	c #495655",
"f+	c #7C8080",
"g+	c #858584",
"h+	c #585D5D",
"i+	c #5B5B5B",
"j+	c #959695",
"k+	c #202020",
"l+	c #1A1919",
"m+	c #1B1D1D",
"n+	c #2B3334",
"o+	c #354040",
"p+	c #505D5D",
"q+	c #767C7C",
"r+	c #808282",
"s+	c #626F6F",
"t+	c #353E3E",
"u+	c #403F3F",
"v+	c #1E2323",
"w+	c #262D2D",
"x+	c #222A2A",
"y+	c #323B3B",
"z+	c #3F4949",
"A+	c #444F50",
"B+	c #7F8181",
"C+	c #5C6565",
"D+	c #4A5656",
"E+	c #445151",
"F+	c #282E2E",
"G+	c #454545",
"H+	c #1D1D1D",
"I+	c #1F1F1F",
"J+	c #3B3B3B",
"K+	c #222929",
"L+	c #202929",
"M+	c #2E3838",
"N+	c #3B4546",
"O+	c #3D4848",
"P+	c #717C7B",
"Q+	c #7F8081",
"R+	c #646E6D",
"S+	c #434E4E",
"T+	c #3A4646",
"U+	c #364242",
"V+	c #374343",
"W+	c #272929",
"X+	c #000000",
"Y+	c #0D0D0D",
"Z+	c #333333",
"`+	c #2B2B2B",
" @	c #353535",
".@	c #838383",
"+@	c #1A1B1B",
"@@	c #1B1C1C",
"#@	c #1B1B1B",
"$@	c #202828",
"%@	c #222C2C",
"&@	c #374141",
"*@	c #787D7D",
"=@	c #566060",
"-@	c #485353",
";@	c #2C3838",
">@	c #323D3D",
",@	c #2A3535",
"'@	c #2B3333",
")@	c #C0C0C0",
"!@	c #1E1E1E",
"~@	c #131515",
"{@	c #141515",
"]@	c #141818",
"^@	c #181D1D",
"/@	c #232C2C",
"(@	c #283232",
"_@	c #374242",
":@	c #3D4747",
"<@	c #646D6D",
"[@	c #828383",
"}@	c #5A6363",
"|@	c #495454",
"1@	c #2C3939",
"2@	c #2B3636",
"3@	c #1D2222",
"4@	c #2C2C2C",
"5@	c #111111",
"6@	c #111212",
"7@	c #111313",
"8@	c #121313",
"9@	c #131717",
"0@	c #151A1A",
"a@	c #181E1E",
"b@	c #222B2B",
"c@	c #283333",
"d@	c #3E4A4A",
"e@	c #697272",
"f@	c #838485",
"g@	c #7B7E7E",
"h@	c #5D6868",
"i@	c #515C5C",
"j@	c #2E3A3A",
"k@	c #2C3636",
"l@	c #253030",
"m@	c #242D2D",
"n@	c #2A3333",
"o@	c #232B2B",
"p@	c #353636",
"q@	c #404040",
"r@	c #676767",
"s@	c #030303",
"t@	c #101010",
"u@	c #101111",
"v@	c #121212",
"w@	c #131414",
"x@	c #131616",
"y@	c #1A2020",
"z@	c #1A2121",
"A@	c #1E2727",
"B@	c #242F2F",
"C@	c #2F3A3A",
"D@	c #3B4949",
"E@	c #6D7676",
"F@	c #7A7D7D",
"G@	c #556060",
"H@	c #475454",
"I@	c #384444",
"J@	c #303A3A",
"K@	c #273130",
"L@	c #181B1B",
"M@	c #B5B5B5",
"N@	c #141717",
"O@	c #121414",
"P@	c #131818",
"Q@	c #232E2E",
"R@	c #333E3E",
"S@	c #546262",
"T@	c #818283",
"U@	c #7B7D7D",
"V@	c #465050",
"W@	c #303C3C",
"X@	c #1C2323",
"Y@	c #181C1C",
"Z@	c #191F1F",
"`@	c #0E0E0E",
" #	c #070707",
".#	c #141414",
"+#	c #0F0F0F",
"@#	c #505050",
"##	c #303030",
"$#	c #151717",
"%#	c #161B1B",
"&#	c #3E4848",
"*#	c #7F8180",
"=#	c #707576",
"-#	c #465252",
";#	c #424C4C",
">#	c #293434",
",#	c #171B1B",
"'#	c #242828",
")#	c #3F3F3F",
"!#	c #313131",
"~#	c #6D6D6D",
"{#	c #292C2C",
"]#	c #5E6665",
"^#	c #354444",
"/#	c #0C0C0C",
"(#	c #D9D9D9",
"_#	c #212B2B",
":#	c #161A1A",
"<#	c #3C3C3C",
"[#	c #1B2323",
"}#	c #171616",
"|#	c #202323",
"1#	c #C2C2C2",
"2#	c #212121",
"3#	c #383838",
"4#	c #141919",
"5#	c #161818",
"6#	c #151616",
"7#	c #D2D2D2",
"8#	c #E3E3E3",
"9#	c #696969",
"0#	c #343434",
"a#	c #373737",
"b#	c #E9E9E9",
"c#	c #222222",
"d#	c #060606",
"e#	c #818181",
"f#	c #111010",
"g#	c #0F1010",
"h#	c #0A0A0A",
"i#	c #101212",
"j#	c #2F2F2F",
"k#	c #F8F8F8",
"l#	c #FAFAFA",
"m#	c #090909",
"n#	c #737373",
"o#	c #323232",
"p#	c #F9F9F9",
"q#	c #FCFCFC",
"r#	c #2A2A2A",
"s#	c #717171",
"t#	c #161617",
"u#	c #3D3D3D",
"v#	c #080808",
"w#	c #BEBEBE",
"x#	c #2D2D2D",
"y#	c #151919",
"z#	c #C4C4C4",
"A#	c #192020",
"B#	c #182020",
"C#	c #232D2D",
"D#	c #242E2E",
"E#	c #323E3E",
"F#	c #3B4545",
"G#	c #222323",
"H#	c #262626",
"I#	c #263232",
"J#	c #394444",
"K#	c #364444",
"L#	c #576464",
"M#	c #808283",
"N#	c #565B5B",
"O#	c #222D2D",
"P#	c #3D4948",
"Q#	c #6B7676",
"R#	c #727979",
"S#	c #344242",
"T#	c #333D3D",
"U#	c #687071",
"V#	c #7D8080",
"W#	c #414E4E",
"X#	c #344040",
"Y#	c #1F292A",
"Z#	c #181F1F",
"`#	c #141616",
" $	c #2D3535",
".$	c #263030",
"+$	c #495353",
"@$	c #414C4C",
"#$	c #646C6C",
"$$	c #838483",
"%$	c #7B7F7F",
"&$	c #4E5959",
"*$	c #121111",
"=$	c #0B0B0B",
"-$	c #4A5354",
";$	c #3E4949",
">$	c #787E7E",
",$	c #828283",
"'$	c #7A7E7E",
")$	c #586464",
"!$	c #444E4E",
"~$	c #303B3B",
"{$	c #495555",
"]$	c #737B7B",
"^$	c #838484",
"/$	c #7F8080",
"($	c #556161",
"_$	c #2A3636",
":$	c #3B4646",
"<$	c #485454",
"[$	c #757B7B",
"}$	c #818281",
"|$	c #586363",
"1$	c #5C6667",
"2$	c #485555",
"3$	c #7D8382",
"4$	c #818282",
"5$	c #485252",
"6$	c #283434",
"7$	c #7C8181",
"8$	c #626B6B",
"9$	c #434F4F",
"0$	c #525D5D",
"a$	c #4F5A59",
"b$	c #354041",
"c$	c #242B2B",
"d$	c #707575",
"e$	c #5F6D6D",
"f$	c #505B5B",
"g$	c #333E3F",
"h$	c #232323",
"i$	c #2F3030",
"j$	c #435050",
"k$	c #425050",
"l$	c #2F3939",
"m$	c #262F2F",
"n$	c #2A2B2B",
"o$	c #364141",
"p$	c #2A3434",
"q$	c #272727",
"r$	c #222626",
"s$	c #273232",
"t$	c #494848",
"u$	c #222424",
"v$	c #414040",
"w$	c #3B3C3C",
"x$	c #353737",
"y$	c #151818",
"z$	c #363737",
"A$	c #2C2D2D",
"B$	c #262727",
"C$	c #292B2B",
"D$	c #242626",
"E$	c #252727",
"F$	c #262929",
"G$	c #292A2A",
"H$	c #313232",
"  . + @ # $ $ $ % % $ # # @ + .   & * = - ; > , ' ) ! ~ { ] ^ / ( _ : < [ } | 1 2 3 4 4 5 5 5 5 5 6 6 6 6 7 7 7 7 7 7 7 7 7 7 7 ",
"+ 8 @ $ $ % 9 9 0 9 9 % % % $ + & = ; a a a a > , ' ! b c d e / / f g < [ [ } 1 1 3 3 3 5 4 6 5 5 6 6 6 h i j k i h 7 l 7 7 7 7 ",
"8 # # % 9 0 0 0 m n n 9 ) o p q r s p t u v w q x | y ! ~ { ] ^ / f g : [ [ } 1 1 3 3 3 4 4 6 5 5 5 l z A B B B B C D 7 l 7 7 7 ",
"# $ % 0 0 n m E 8 F G H I J K u L M L L v N L O z J P Q R [ ~ ^ / f _ : [ [ } 1 2 2 3 3 4 4 5 6 5 S C T < [ U V 4 U B S W l 7 7 ",
"# % 9 0 m X g Y Z t L ` I  ...+.@.#.$.%.&.*.=.-.F p O *.K ;.>.o e ( _ : < < } | 2 2 3 4 4 4 5 6  .,.V 4 6 1 5 6 7 k i '.).i 7 7 ",
"% 9 n !.~ s ~.#.q {.D t ].^./.(._.:.<.[.<.}.|.1.2.3.4.q ` P N #.@.B / : < < } | 1 2 2 4 3 5 5 U R h 4 | U W '.k 5.6.7.8.B 9.U l ",
"% n . J J 0.>.W t a.^.a.b.c.d.e.f.(._.g.:.<.h.i.j.j.k.l.m.n.o.p.p G p 4 : < } | 1 2 2 4 4 4 5 p q.3 | o k 5.V 6 3 r.j s.Y B i 7 ",
"0 g s *.-.h t.c.c.b.u.u.b.b.d.d.(.f.v._.:.<.w.x.y.z.y.A.B.C.D.E.H #.4.N C < [ | 1 1 2 4 4 4 6 F.3 h V G.l 4 } g H.l k W 0.I.q.7 ",
"C J.J.h %.b.u.b.b.c.b.b.b.b.b.f.f.v.(.(.K.L.<.w.M.}.y.y.y.j.N.|.O.P.Q.$.Q R.} | 1 1 2 3 3 4 V F V l S.3 < f ] c T.4 U.V.J.>.T 7 ",
"o.G A W.a.b.b.b.b.c.u.u.a.u.X.b.v.b.v.(.e._.:.Y.w.w.x.}.i.y.Z.`. +Z.m..+++P Q g 1 2 2 4 3 4 F @+k V U.5 _ ~ ' ' e | h k r #+F.7 ",
"A -.$+a.b.b.b.b.a.b.u.u.u.u.u.b.b.f.f.%+f.e._.L.:.<.w.<.&+[.*+ +=+-+;+>+*.G ,+-.} 2 2 3 3 4 8.T '.G.j U } d '+' ~ )+7 U.z !+ .5 ",
"P a.u.a.a.u.u.u.b.u.c.c.c.b.u.b.(.e.f.u.~+(._.:.w.Y.w.Y.{+{+x.*+`.]+^+/+(+#.` I >.3 2 3 3 4 U @+o '.'.5.3 / ~ ] ( : 3 U _+:+ .3 ",
"u.u.u.^.^.u.u.a.b.u.c.b.c.b.b.c.b.c.v.%+<+(.[+g.:.w.w.[.&+&+x.z.}+|+1+2+3+4+5+6+~.t 6 3 3 5 5 T W @+o 7+7 : _ } 3 l r.F 8+9+j 6 ",
"a.a.u.a.^.a.u.u.u.b.b.b.b.c.b.b.(.c.c.b.%+(._.:.Y.[.<.<.x.0+z.a+b+c+d+e+f+g+h+t.i+Z 0.4 3 5 5 F W ).s.k j+3 6 V S.k 5.E.k+>.3 l ",
"u.a.^.a.a.^.a.u.u.u.u.c.c.d.c.c.f.l+e.f.%+v.K.K.m+:.&+*+y.y.C.n+=+o+p+q+9.r+s+t+u+$.*.{.2 5 4 7 B F A C j U U.V.i ).E.d.9+F 6 7 ",
"u.a.a.^.^.^.^.u.a.u.b.b.d.d.c.c.d.e._.(._._.:.K.<.w.*+j.v+w+x+y+z+A+q+9.B+C+D+E+F+#+N P.T 4 5 6 V 8.i c J ~.0.Q G+H+I+J+A | l 7 ",
"a.a.a.^.a.a.^.^.u.a.u.a.u.c.d.d.d._.e.e._.g.<.&+w.*+y.y.K+L+M+N+O+P+9.Q+R+S+T+U+V+W+M ;.++5 5 6 4 8.y a R X+Y+Z+`+ @0..@< 7 l 7 ",
"u.u.a.a.a.a.a.^.a.a.a.a.a.c.c.+@@@#@(.(.:.g.:.*+}.i.j.$@$@%@&@&@*@.@B+=@-@V+;@>@,@'@#+M %.H 4 6 j U )@[ !@X+@.C x W f 7 l l 7 7 ",
"a.a.a.u.^.a.^.a.^.a.^.^.u.b.e.f.a.~@{@~@]@^@|. +j.j.x+/@(@_@:@<@[@F.}@|@1@2@^+(@M+2@3@J+G+*.l 4 F ' , R X+4@U 4 3 4 l 7 7 7 7 7 ",
"a.u.u.u.^.^.a.^.a.a.a.a.^.$+5@5@6@7@8@7@9@9@0@a@|+b@b@c@&@d@e@f@g@h@i@j@k@l@m@n@x+b@o@p@q@P.r@o 2 )@3 ^.s@..6 l 7 7 7 7 7 7 7 7 ",
"a.u.u.u.a.a.a.a.a.^.^.$+t@t@u@v@6@w@6@8@7@8@x@y@z@A@B@C@D@E@[@F@G@H@I@J@K@o@N.Z.a+}.z.L@$.$.#.F.> M@r@X+ @U 7 l 7 7 7 7 7 7 7 7 ",
"^.^.^.a.^.^.u.a.a.a.5@5@5@5@5@5@5@6@6@7@7@N@O@x@P@{+Q@R@S@T@U@D+V@W@k@(@N.$@X@[.[.Y@Y@Z@!+E.;.: )@7 `@ #Y 6 7 7 7 7 7 7 7 7 7 7 ",
"a..#^.a.a.^.u.u.a.5@t@5@5@5@t@+#k+t.~.@#P.##5@t@8@$#%#&#*#=#-#;#2@>#m@a+ +L.Y@K.,#K.L.&+'#G+8.; b ++X+)#l 7 7 7 7 7 7 7 7 7 7 7 ",
"^.a.a.a.a.a.a.u.v@t@5@5@5@t@!#p.L @#` w z ~#I w 5@5@%+{#]#^#U+2@x+b@*+&+{+[+(.v.b.v.f.L@L.;._ * 7 /#`@8.6 l 7 7 7 7 7 7 7 7 7 7 ",
"a.^.^.^.a.^.a..#t@5@5@t@#@E._+#+L J.(#+ ^ Z D I.I.:+t@@@L.,@_#$@$@*+K.v.~+%+%+~+a.u.~+[+:#R.a '+i+X+~.6 7 l 7 7 7 7 7 7 7 7 7 7 ",
"a.a.a.a.a.a.a.t@5@5@t@d.t.<#$.M P I + # ! I ,+I..@W `+t@$+:#[#[.L.[+v.}#u.%+a.a.a.a.~+f.|#V 1#_ 2#v@W 7 7 7 7 7 7 7 7 7 7 7 7 7 ",
"u.a.u.a.u.a.$+t@5@t@a.!+3#9+p.#.N # { / -.I ,+ .9.W j a.t@5@4#N@%+u.5#6#^.^.a.u.u.b.b.u.!+g 1#h  #G+5 6 6 l 7 7 7 7 7 7 7 7 7 7 ",
"b.u.a.a.u.a.t@t@5@+#:+ @E.)#G+~.++7#8#g z p -.-.9#8.U. .Y+u@5@O@5#~+%+a.a.a.a.b.u.b.b.b.~.~ - ,.X+R 6 6 7 7 7 7 7 7 7 7 7 7 7 7 ",
"b.u.u.a.u.^.t@5@5@u.0#a#J+q@#+O @.# b#T p z 6+p 6+U.5.5 c#5@5@u@$#b.%+u.b.}#u.b.b.c.b.u.J a , ++d#@+7 6 7 7 7 7 7 7 7 7 7 7 7 7 ",
"b.u.u.u.u.$+5@5@t@W.Z+3#<#$.M P 9., 1#5.h B I.r@H U.G.7 *.+#t@t@$+u.b.u.u.b.u.c.c.d.c..#A = !  @a.e#7 l l 7 7 7 7 7 7 7 7 7 7 7 ",
"u.a.a.a.a.5@f#5@g#`+0#t.9+%.i+R.j [ 1#W V 6 5 9#,.i h 6 9.h#5@t@5@b.b.b.u.c.f.b.c.b.d..#B 1#/ !@`+A 7 7 7 7 7 7 7 7 7 7 7 7 7 7 ",
"a.$#$#6#6#u@i#6@+#j#!+E.)#i+9#6+! * k#l#5.6 F.z ).U.U 5 1 m#t@5@t@u.u.u.u.b.u.b.c.c.c.#@7 & < 5@E.n#6 l 7 7 7 7 7 7 7 7 7 7 7 7 ",
"a.~+a.u.b.6@5@5@+#o#!+J+_+>.6+I f g p#q#7 G p 6+k 5.7 4 1 h#5@7@u@b.b.a..#a.a.a.u.u.X.r#:   6 +#<#s#6 l 7 7 7 7 7 7 7 7 7 7 7 7 ",
"%+~+t#u.%+O@O@v@+#j#3#u#$.4.I ( : 1 [ [ -.6+6+s.i h 7 2 V v#t@v@6@c.f.%+~+u.a.~+u.%+%+_+d & j .#t.s#7 7 7 7 7 7 7 7 7 7 7 7 7 7 ",
"b.f.b.%+(.~@O@6@6@r#E.)#G+G p < ) ( I ..Z G {.o k V 6 1 I /#t@6@v@f.%+%+a.}#a.a.a.%+u.J.M@= S !@0#,+l 7 7 7 7 7 7 7 7 7 7 7 7 7 ",
"6#v.f.(.(.K.x@8@8@2#J+)#P.-.G T ..6 Y C Y F.8.o U.l 5 | !++#u@5@^.c.u.u.a.a.^.^.a.}#.#C w#'+4.x###Y 7 7 l U i i i i i G.7 7 7 7 ",
"v.b.v.(.L.{+y#,#O@+#<#_+#+9#G i S n#6+{.Y F.@+'.G.7 3 [ u.f#t@u@u.c.u.u.u.u.b.^.a.^.#@5 z#/ Z+a#o#W 7 7 7 ..F.e#I.e#e#).7 7 7 7 ",
"[+v.v.Y@^@}.a@A#N@u@2#p.P.O i M@[ q.6+x  .9.B k h 6 2 p.t@u@5@5@b.%+u.u.a.u.u.u.u.a.++b 1#j ]._+t.l 7 7 6 .@W @+!#Y W i l 7 7 7 ",
"L@v.,#L.&+*+|+B#N@w@t@ @#.O : d f n#,+I.s.).W U.V 4  .5@t@5@t@.#u.}#a.a.a.a.a.a.a.b.W )@' 9#<#)#G+3 7 7 6 F.W @+o#Y W k l 7 7 7 ",
"K.L@[.[.*+`.b@C#L+[+~+t@9+u n#6 ,.~#D C S F o U.4 ,+h#5@5@t@v@a.a.u.u.a.^.^.a.a..#@#] z#1 4@o#t.q 5 G.@+G..@W @+o#Y W k l 7 7 7 ",
"K.[.*+*+$@m@D#;@E#F#G#{@Y+3#K q r@I ,+I..@T k k @.m#5@5@t@t@a.^.a.a.u.u.^.^.u.u.H#l 1#) q !#W.H#I.7 k F V .@W @+o#Y W k l 7 7 7 ",
"{+y.[.`.m@I#J#K#L#M#N#w@v@5@v@%.-.I ,+I.F.8.@.t@t@5@5@5@t@.#^.a.a.a.b.u.a.a.u.u.Y , = G.c.#.r#H#U.7 7 7 6 F.W @+o#Y W k l l 7 7 ",
"X@z.]+|+O#_@P#Q#F.R#S#n@O@5@t@t@v@.#a.u.^.v@t@t@t@5@5@t@.#u.^.a.^.u.u.a.a.u.v@Q d z#g a#`+t.J+P.5 7 7 7 6 S @+).j#I.@+'.l 7 7 7 ",
"`.K+-+D#T#S+U#.@V#W#X#Y#Z#`#5@t@t@5@f#t@5@t@u@u@5@t@5@a.u.u.a.a.u.a.u.a.^..#*.g & ~ z Y+G+o#t.9.7 7 7 7 U / ( ( 2 ( f ( U l 7 7 ",
" + $.$+$@$#$$$%$&$@$>#$@x.~@8@5@5@5@u@v@5@5@*$5@5@.#b.u.u.a.u.u.u.^.u.u.a.)#2 )@' s.=$`+$.j#j#V l 7 7 7 T A R R x A x C I U 7 7 ",
"/@C#-$;$>$,$'$)$!$l@C.`.<.g.5#8@5@t@t@5@v@v@v@{@%+b.c.b.a.u.a.u.u.u.c.a. @5 = a F /##@*.W.:+9#7 7 7 l G.k f < } | 1 1 1 F U 7 7 ",
"c+~${$]$^$/$($W#;@_$K+z.K.v.b.b.%+a.a.b.b.5#u.%+u.u.u.b.u.a.u.c.b.9+k !#l = > '..#$+o#E.a#E.6 l 7 7 h s.n#p p J 6+4.J Q q U 7 7 ",
":$<$[$^$}$|$1$E#2@=+i.w.(.v.f.%+u.b.u.a.f.~+u.b.a.%+b.b.u.a.b.u.!+3 7 : - , i u.5@c#u o#a#H 7 7 7 7 l U ).Q J J 4.J z J q U 7 7 ",
"2$3$9.4$=@5$6$T#m@z.w.%+f.a.u.%+a.a.b.u.u.~+~+b.b.c.u.a.b.a..###2 l 7 l d 8..#Y+#@M 0#o#$.4 7 7 7 7 7 7 @+D {.n#{.s#R.I r U 7 7 ",
"7$$$4$8$9$_$M+=+N.z.<.u.~+u.a.a.~+u.u.b.%+a.~+%+%+a.u.u.a.^.!#g l 7 7 7 l Z v#a.!#_+j#!#T l 7 7 7 7 7 7 i s G r@_+6+G r {.l 7 7 ",
"$$B+0$a$b$;@=+c$`.w._.v.%+a.a.u.a.u.b.u.%+u.~+~+u.u.a.a.^.:+f l 7 7 l 7 7 R.a.H#P 4@E.s#6 7 7 7 7 7 7 7 7  .9.e###x 9.T G.7 l 7 ",
"d$e$f$g$E#.$=+ +i.<.v.~+~+a.u.u.u.}#a.u.b.u.%+a.%+a.a.^.2#} l 7 7 7 7 i h$v#!@~.:+x#N 5 7 7 7 7 7 7 l 7 6 F.W @+o#Y W k l 7 7 7 ",
"i$j$k$V+l$m$k@ +*+K.%+~+~+a.u.u.a.a.a.b.%+b.b.a.a.a.^.a.^.++4 l l 4 I.6 t@H+@#r#a#_+U 7 7 7 7 7 7 7 7 S h .@W @+o#Y W k l 7 7 7 ",
"o.n$ $o$p$^+$@1.*+L@%+^.a.a.u.b.a.u.u.u.%+%+f.u.u.a.^.a.a.$+w 3 ,+c.X+q 5 c#q$!#3#l 7 7 7 7 7 7 7 7 7 5.V .@W @+o#Y W k l 7 7 7 ",
"%.@.!#r$^+s$L+M.L.K.f.~+^.a.a.u.a.a.a.~+b.f.f.%+~+~+a.^.a.a.^.$.t@ #$+ @,+4 2#P.7 l 7 7 7 7 7 7 7 7 7 7 6 F.W @+o#Y W k l 7 7 7 ",
"@.9+o.t$u$N.c$X@Y@L@v.%+u.u.u.u.a.u.u.b.(.f.f.f.u.u.a.a.a.a.a.a.a.I+P p. @I.5.B l 7 7 7 7 7 7 7 7 7 7 7 6 F.W @+o#Y W k l 7 7 7 ",
"i *.$.P u v$m+*+Z@K.(.[+f.a.u.a.a..#a.X.v.e.(.v.u.u.u.u.u.a.u.c.$.v 0#r#!#s s 6 7 7 7 7 7 7 7 7 7 7 7 7 6 F.W @+o#Y W k l 7 7 7 ",
"7 U I O t.;.++)#G#^@w.L.L@f.X.u.u.^.u.f.[+(.(.f.%+f.%+b.a.I+q@;.a###t.!+W 7 7 l 7 7 7 7 7 7 7 7 7 7 7 7 6 F.W @+o#Y W k l 7 7 7 ",
"l 7 6 @+t <#t.p.++#+w$x$%+y$v.(.^.6#b.(.{+g.<.e.%+^.c# @;.0.<#q$].:+I 7 7 l 7 7 7 7 7 7 7 7 7 7 7 7 7 7 5 F.W @+o#Y W k l 7 7 7 ",
"7 7 l 7 6 I.++q@!+M u v z ` z$A$B$C$D$E$F$n$G$H$)#` i+K _+3#$.q@J.G.6 l 7 7 7 7 7 7 7 7 7 7 7 7 7 7 7 l q..@W @+o#Y W k l 7 7 7 ",
"7 7 7 7 7 7 5 F v q@#+3#E.%.P u @#@#*.*.*.L O M J+##!+p.u P I 5 7 l 7 7 7 7 l 7 7 l 7 7 l 7 7 7 7 l 7 7 5 F.W @+o#Y W k l 7 7 7 ",
"7 7 7 7 7 7 7 l 7 l 9.i+$.3#<#q@!+!+0#0#a#!+3#t.!+t.M n#V 7 l 7 7 7 7 7 7 7 6 T U.7 q.j 7 l l l l 7 o 7 6 F.W @+o#Y B k l 7 7 7 ",
"7 7 7 7 7 7 7 7 7 7 7 7 U U.@+C I -.J.w J.-.{.9.'.G.7 7 7 7 7 7 7 7 7 7 7 7 6 o 8.U.U.W '.W U.S W T j 7 7 6 [ [ h } [ ( U 7 7 7 ",
"7 7 7 7 7 7 7 7 7 7 7 7 7 l 7 7 6 6 5 5 5 6 6 7 7 7 7 7 7 7 7 7 7 7 7 7 7 7 l 7 7 7 7 7 7 7 7 6 7 7 7 7 7 l l l l l l l 7 7 7 7 "};
