/* XPM */
static char * turntable_xpm[] = {
"64 64 330 2",
"  	c None",
". 	c #474747",
"+ 	c #4E4E4E",
"@ 	c #515151",
"# 	c #5A5A5A",
"$ 	c #606060",
"% 	c #565656",
"& 	c #545454",
"* 	c #555555",
"= 	c #4D4D4D",
"- 	c #4F4F4F",
"; 	c #535353",
"> 	c #5C5C5C",
", 	c #5D5D5D",
"' 	c #5B5B5B",
") 	c #575757",
"! 	c #494949",
"~ 	c #414141",
"{ 	c #434343",
"] 	c #484848",
"^ 	c #636363",
"/ 	c #6E6E6E",
"( 	c #686868",
"_ 	c #5F5F5F",
": 	c #696969",
"< 	c #868686",
"[ 	c #616161",
"} 	c #2D2D2D",
"| 	c #232323",
"1 	c #1F1F1F",
"2 	c #1D1D1D",
"3 	c #1C1C1C",
"4 	c #1B1B1B",
"5 	c #181818",
"6 	c #161616",
"7 	c #141414",
"8 	c #131313",
"9 	c #121212",
"0 	c #1E1E1E",
"a 	c #373737",
"b 	c #4B4B4B",
"c 	c #5E5E5E",
"d 	c #656565",
"e 	c #626262",
"f 	c #464646",
"g 	c #272727",
"h 	c #202020",
"i 	c #212121",
"j 	c #191919",
"k 	c #171717",
"l 	c #3D3D3D",
"m 	c #4C4C4C",
"n 	c #646464",
"o 	c #2F2F2F",
"p 	c #1A1A1A",
"q 	c #151515",
"r 	c #0F0F0F",
"s 	c #454545",
"t 	c #404040",
"u 	c #3C3C3C",
"v 	c #2A2A2A",
"w 	c #222222",
"x 	c #111111",
"y 	c #3E3E3E",
"z 	c #767676",
"A 	c #3B3B3B",
"B 	c #242424",
"C 	c #101010",
"D 	c #343434",
"E 	c #3F3F3F",
"F 	c #676767",
"G 	c #6F6F6F",
"H 	c #4A4A4A",
"I 	c #737373",
"J 	c #595959",
"K 	c #505050",
"L 	c #727272",
"M 	c #444444",
"N 	c #252525",
"O 	c #323232",
"P 	c #2B2B2B",
"Q 	c #3A3A3A",
"R 	c #525252",
"S 	c #7C7C7C",
"T 	c #313131",
"U 	c #292929",
"V 	c #2C2C2C",
"W 	c #585858",
"X 	c #797979",
"Y 	c #2E2E2E",
"Z 	c #363636",
"` 	c #424242",
" .	c #7E7E7E",
"..	c #282828",
"+.	c #383838",
"@.	c #0E0E0E",
"#.	c #0C0C0C",
"$.	c #333333",
"%.	c #393939",
"&.	c #0A0A0A",
"*.	c #080808",
"=.	c #090909",
"-.	c #0B0B0B",
";.	c #303030",
">.	c #353535",
",.	c #7D7D7D",
"'.	c #070707",
").	c #7F7F7F",
"!.	c #0D0D0E",
"~.	c #383A3D",
"{.	c #72757A",
"].	c #929497",
"^.	c #96989B",
"/.	c #7F8184",
"(.	c #4E5056",
"_.	c #1E1F20",
":.	c #050505",
"<.	c #0D0D0D",
"[.	c #5D6066",
"}.	c #D0CFC1",
"|.	c #F6DE99",
"1.	c #FFCD59",
"2.	c #FFBF36",
"3.	c #FFBE36",
"4.	c #FFC548",
"5.	c #FFD67C",
"6.	c #E4DBB8",
"7.	c #9B9EA0",
"8.	c #202124",
"9.	c #262626",
"0.	c #141415",
"a.	c #ABAEAE",
"b.	c #FDDF91",
"c.	c #FFB41D",
"d.	c #FFAB00",
"e.	c #FFAC00",
"f.	c #FFAD00",
"g.	c #FFA904",
"h.	c #FEC851",
"i.	c #E4E1C7",
"j.	c #4E5055",
"k.	c #BEBFBA",
"l.	c #FFC952",
"m.	c #FAB100",
"n.	c #E09F00",
"o.	c #F5AB00",
"p.	c #ECAB00",
"q.	c #FCAE00",
"r.	c #FFAE00",
"s.	c #FFB112",
"t.	c #F3E5B7",
"u.	c #606268",
"v.	c #202120",
"w.	c #787878",
"x.	c #080707",
"y.	c #97989B",
"z.	c #FECA5C",
"A.	c #D99800",
"B.	c #654500",
"C.	c #332200",
"D.	c #432E00",
"E.	c #463000",
"F.	c #916300",
"G.	c #FDAE00",
"H.	c #FFB011",
"I.	c #EBE2BF",
"J.	c #4E4F50",
"K.	c #808080",
"L.	c #3D3E3E",
"M.	c #FBE1A3",
"N.	c #FEB200",
"O.	c #7C5600",
"P.	c #3D2B00",
"Q.	c #D29B00",
"R.	c #1C1200",
"S.	c #9A6900",
"T.	c #1B1200",
"U.	c #FBAD00",
"V.	c #FFBE31",
"W.	c #BCC0C2",
"X.	c #757575",
"Y.	c #060606",
"Z.	c #B0B2B3",
"`.	c #FFB624",
" +	c #E0A300",
".+	c #1F1400",
"++	c #312200",
"@+	c #553A00",
"#+	c #442E00",
"$+	c #745100",
"%+	c #FCAF00",
"&+	c #F6E0A3",
"*+	c #444446",
"=+	c #6B6B6B",
"-+	c #F6E6BF",
";+	c #FFAB01",
">+	c #EAA600",
",+	c #7F5600",
"'+	c #D59400",
")+	c #ECA900",
"!+	c #D29600",
"~+	c #FFB400",
"{+	c #FFC74C",
"]+	c #84888D",
"^+	c #3F4041",
"/+	c #FDDA8C",
"(+	c #FFB000",
"_+	c #FFAF00",
":+	c #FAB21B",
"<+	c #F6B735",
"[+	c #FDAE05",
"}+	c #FEAF00",
"|+	c #FFB314",
"1+	c #B6B7B6",
"2+	c #030303",
"3+	c #545558",
"4+	c #FFD26E",
"5+	c #FBAD05",
"6+	c #E2DAC8",
"7+	c #EBEEF2",
"8+	c #C89C35",
"9+	c #F1A600",
"0+	c #EEA300",
"a+	c #FEAE09",
"b+	c #CECEC4",
"c+	c #58595C",
"d+	c #FFD36F",
"e+	c #F7AB04",
"f+	c #BCB4A4",
"g+	c #61656D",
"h+	c #BB8B1E",
"i+	c #FAAD00",
"j+	c #E39C00",
"k+	c #E79E00",
"l+	c #EAA000",
"m+	c #FDAD08",
"n+	c #CFCEC0",
"o+	c #020202",
"p+	c #404245",
"q+	c #FEDD8F",
"r+	c #FEAE00",
"s+	c #EAA60A",
"t+	c #C58F07",
"u+	c #FEAF01",
"v+	c #E89F00",
"w+	c #E59C00",
"x+	c #E09900",
"y+	c #E49B00",
"z+	c #EBA100",
"A+	c #FFB213",
"B+	c #B2B4B4",
"C+	c #040404",
"D+	c #1B1C1D",
"E+	c #EEE1BA",
"F+	c #FFAA00",
"G+	c #FEB000",
"H+	c #E69D00",
"I+	c #E89E00",
"J+	c #E9A000",
"K+	c #FFC650",
"L+	c #818183",
"M+	c #BABCBA",
"N+	c #FFBB2E",
"O+	c #F5A900",
"P+	c #E39B00",
"Q+	c #F5A800",
"R+	c #FDE4AB",
"S+	c #2A2A2B",
"T+	c #6C6C6C",
"U+	c #616469",
"V+	c #FCE4A6",
"W+	c #FFAB02",
"X+	c #E59D00",
"Y+	c #F6AA00",
"Z+	c #FFBC32",
"`+	c #B2B4B3",
" @	c #30302F",
".@	c #AEB0B3",
"+@	c #FFCF5F",
"@@	c #FCAD00",
"#@	c #E59E00",
"$@	c #DC9700",
"%@	c #DF9800",
"&@	c #E29B00",
"*@	c #E69C00",
"=@	c #FFAF0E",
"-@	c #EDE1C0",
";@	c #262627",
">@	c #252627",
",@	c #BEC1BD",
"'@	c #FFCC56",
")@	c #F7A600",
"!@	c #E79D00",
"~@	c #E29A00",
"{@	c #EDA200",
"]@	c #FFB010",
"^@	c #F5E6B5",
"/@	c #4F5154",
"(@	c #161718",
"_@	c #A7AAAE",
":@	c #F9DE91",
"<@	c #FDB113",
"[@	c #FAA903",
"}@	c #F6A800",
"|@	c #FAAC00",
"1@	c #FFAD03",
"2@	c #FFC749",
"3@	c #DFD9C5",
"4@	c #4B4C50",
"5@	c #0B0B0C",
"6@	c #5A5D61",
"7@	c #C4C6BD",
"8@	c #FCDF9F",
"9@	c #FFCE5E",
"0@	c #FFC040",
"a@	c #FFBD35",
"b@	c #FFC546",
"c@	c #FFD87F",
"d@	c #EBDFB8",
"e@	c #93979D",
"f@	c #222223",
"g@	c #666666",
"h@	c #35373B",
"i@	c #6B6D71",
"j@	c #8F9397",
"k@	c #95989A",
"l@	c #818387",
"m@	c #56595E",
"n@	c #181819",
"o@	c #050605",
"                                                    . . + @ @ # $ % & & * =                                                     ",
"                                            - ; > , ' ) @ ! ~ { ! ~ ~ ] % ^ / ( _ '                                             ",
"                                      ] @ : < [ ~ } | 1 2 2 3 4 5 6 7 8 9 6 0 a b % c + ~                                       ",
"                                  - ; d e f g 3 h i h h h 1 2 4 j 5 5 5 k k 6 7 9 6 i l m ] ~                                   ",
"                                @ n ) o 4 0 h i i i i i h 0 3 p j k k k k k k k 6 q 8 r 6 o s t u                               ",
"                            ; e > v p 2 0 h w i i 1 h i 1 0 3 p 5 k 6 q q q q 6 6 6 6 7 9 x q v y y                             ",
"                          [ z A 5 p 4 0 1 1 h w B | w h 2 4 p 5 k 6 6 6 q 6 q 8 8 7 7 7 7 8 9 C k D E                           ",
"                      * F G B k 5 p 3 2 1 w | i 1 0 0 0 3 4 5 6 6 7 7 8 8 8 8 q 7 8 x 9 8 7 7 9 x C g t t                       ",
"                    H I J q k 5 j p 4 1 h 0 1 h h h 0 3 4 j k 6 q q 8 8 8 8 9 9 9 8 8 x x 9 8 7 9 9 C 2 l y                     ",
"                  ; I ! x q k j p 3 3 4 2 i | h 1 h 1 0 3 j k 6 6 q 8 8 8 8 8 9 9 x x 8 7 9 x 8 7 8 9 9 5 A A                   ",
"                K L M r 7 q k j 4 p 4 2 1 1 1 h h 0 2 3 4 j k 6 q 8 8 9 9 8 8 9 9 9 x x x 8 8 x 9 8 8 9 7 4 y ~                 ",
"              % : ] C 9 7 6 5 p 5 4 3 3 3 1 0 1 i i i h 0 4 j 5 k k 6 6 q 8 9 9 9 9 9 9 x x 8 8 x 9 7 6 5 4 N ! y               ",
"              F J r x 9 q 6 k 5 p 4 p 4 3 2 h w | i 2 3 4 5 6 q q 7 7 8 7 q 7 8 9 x 9 9 9 x x 9 7 9 8 j 0 i B O y               ",
"            ' / C x 9 7 q 6 6 j p j j p 3 1 h 0 2 2 3 4 p 5 6 6 7 7 8 7 8 7 8 8 7 8 9 9 9 9 9 x 9 q 5 3 w g P o Q D             ",
"          R S 3 x x 9 8 q q k k 5 j j 4 3 3 3 3 2 0 0 3 p 5 k k 6 6 6 6 q 8 8 8 9 8 8 9 8 9 9 9 8 5 0 w g } T D a E T           ",
"          / ~ x C x 8 7 8 6 6 k k j 4 4 4 j 4 2 0 3 4 j j k k 6 q 7 8 8 7 6 6 8 x 9 9 8 8 8 x 8 6 3 | U V O a Q u E Q           ",
"        W X r 9 9 9 7 8 q q q 6 k j j j j 4 4 p 4 4 3 4 j 5 k 6 7 7 8 7 7 8 8 q 7 C x 9 8 9 8 6 4 i g Y D Z Q E t ` H T         ",
"      -  .} 9 x 7 7 7 7 6 q q 6 k 5 k j 3 j p 4 4 4 p k k k k k q q q 7 7 8 7 x 9 7 9 C x 8 k 3 w ..Y D +.A y ` M M { ~ V       ",
"      ) G C x 8 8 q 7 6 q q q k k k 6 j k p 4 4 j j p j 7 C @.#.#.#.r x 8 7 8 9 9 x 8 8 x 6 4 w ..o $.%.y ~ ` M M ~ t ~ D       ",
"      X V 9 x 8 7 7 q q q 6 k k q q 5 6 j j 5 5 j 6 r &.*.=.=.=.*.*.*.=.=.-.C 8 9 9 C 9 6 p | U ;.>.Q l ` { M ~ t l u %.y P     ",
"    ; ,.@.x 9 x 7 8 q 8 q q k 6 7 k 6 5 k k 5 j C -.&.&.=.*.=.&.&.=.&.=.=.=.*.-.x 9 9 6 3 B v T Z A E ` { { ~ l A +.Z D %.O     ",
"    d ] x x 9 8 8 7 8 9 7 q 6 8 6 6 k k 6 6 6 @.&.&.=.=.&.*.*.'.'.*.=.&.&.=.*.*.=.r 6 0 N } O +.y t { ~ y l A Q >.$.;.o o Q     ",
"  @ ).3 9 x x 8 9 8 x 9 8 7 7 7 7 6 6 6 6 q #.&.=.*.-.*.!.~.{.].^./.(._.:.'.=.*.*.<.3 g ;.D u y ~ t y u %.Z D $.Y V P U N +.o   ",
"  & I @.x 8 9 8 9 9 x 9 8 8 9 7 8 7 q 7 q @.-.=.&.-.*.[.}.|.1.2.3.4.5.6.7.8.:.*.<.k h ;.+.l t ~ l A a >.O Y } P ..9.N w i P D   ",
"  ' ) 9 x 9 7 8 7 x x 9 8 9 9 8 9 9 9 7 r &.=.&.-.0.a.b.c.d.e.f.f.f.e.g.h.i.j.&.k | V D E ~ A Q D $.;.} U g N | | 0 0 3 2 1 Z   ",
"  / ;.8 9 9 q 8 7 9 8 8 8 x 8 9 9 9 9 9 &.&.&.&.9 k.l.e.m.n.o.p.q.r.r.r.d.s.t.u.v.o Z +.Q Q D o P U g | w 1 3 2 2 j j 5 j k Z   ",
"  w.3 8 8 9 q q 7 8 8 q 7 x 8 8 9 9 8 @.&.=.&.x.y.z.e.A.B.C.D.E.F.G.r.r.r.f.H.I.J.>.Z T P Y P B | 0 0 4 p 5 6 5 k k 6 q 5 6 D V ",
"- K.C 8 8 7 7 7 q 8 7 q 7 9 7 8 9 9 7 -.&.&.-.L.M.d.N.O.P.Q.R.S.T.U.r.r.r.r.f.V.W.v v B 2 1 h j j q 6 8 7 9 x q q 6 6 q k k V o ",
"R X.@.9 7 7 7 7 7 9 7 7 7 9 8 9 9 x 9 &.=.&.Y.Z.`.r.r. +.+++@+#+$+%+r.r.r.r.r.d.&+*+k q C x 6 9 x C 9 x 9 9 C 7 7 6 q q 6 k 9.>.",
"R =+x 9 7 7 7 7 8 8 8 7 9 9 9 9 x x r =.=.&.r -+;+r.f.>+,+'+)+!+~+r.r.r.r.r.r.f.{+]+'.=.*.=.x C C x C x 9 9 x 8 7 6 q q q 6 i D ",
"W $ x 9 q 7 q 7 7 9 8 8 x 9 x x x x <.=.*.&.^+/+e.r.r.(+q._+f.:+<+[+r.r.r.r.r.}+|+1+2+*.*.*.C x r x C x x 9 x 8 7 q q q 6 6 0 D ",
"J # 9 8 q 7 q q 7 9 8 8 9 9 x x C x #.*.&.=.3+4+f.r.r.r.r.r.5+6+7+8+_+r.r.(+9+0+a+b+2+*.*.'.C x r C r x x 9 x 9 7 q 7 q q 6 2 +.",
"* > 8 7 6 q q 7 7 9 7 8 8 x 9 8 x 9 #.=.=.*.c+d+f.r.r.r.r.r.e+f+g+h+r._+i+j+k+l+m+n+o+'.'.'.r x r x C 9 x 9 C 8 8 q 7 7 6 6 2 a ",
"& _ 8 7 6 q q q 7 8 7 8 8 9 9 8 9 9 <.*.=.=.p+q+d.r.r.r.r.r.r+s+t+u+U.v+w+x+y+z+A+B+C+'.'.*.C C C 9 x 9 9 x x 8 8 q 7 7 6 q 2 %.",
"* d x 7 6 6 6 q 8 9 8 9 7 9 9 7 8 9 @.=.&.#.D+E+F+r.r.r.r.r.r.r.G+9+H+z+I+z+J+q.K+L+C+*.'.=.9 x x 9 9 8 8 9 x 7 7 6 7 7 q q w %.",
"* : r 7 q q q q 8 8 7 8 7 9 9 7 6 7 q C 7 j k M+N+f.r.r.r.r._+O+w+y+P+I+k+H+Q+d.R+S+'.*.'.-.8 x 8 8 7 8 8 9 x 7 7 6 7 q 6 6 g D ",
"& T+8 7 8 7 q q 8 8 7 7 7 q 6 p 0 0 i 0 w ..V U+V+W+r.r.r.i+l+l+P+I+H+k+X+Y+r.Z+`+o+*.*.'.r 8 x 7 8 8 8 8 9 x 6 q k 7 6 6 q Y D ",
"  : 3 7 8 7 7 q 6 6 k 4 p 2 0 w U P } o o >.+. @.@+@d.@@#@I+$@X+%@&@*@9+r+f.=@-@;@'.=.'.=.8 7 9 q 7 8 8 8 8 9 6 6 6 7 q k 7 a V ",
"  c ;.7 7 6 5 j j p 2 i i g U } D +.Q l %.%.D V >@,@'@)@!@k+H+l+~@{@%+r.f.]@^@/@:.=.*.'.r q 8 8 7 8 8 8 7 8 7 7 k q q 6 k q A   ",
"  % m 6 j p 2 1 h w N U V ;.D a A ` M { u ;.U 0 x (@_@:@<@[@}@r.|@r.F+1@2@3@4@C+=.*.*.&.8 7 9 q 8 8 8 8 7 9 q 8 5 6 6 6 k p l   ",
"  R n j 1 h B g ..P } T Z a l y ` f s t %.v 2 q #.*.5@6@7@8@9@0@a@b@c@d@e@f@C+&.=.=.=.9 q 8 7 q 8 8 8 7 8 7 q q 5 q 6 5 j U D   ",
"  % g@Y 9.g P Y T $.>.+.l E { s M ` ~ A O ..k #.&.-.-.'.#.h@i@j@k@l@m@n@o@*.&.=.=.&.9 6 q 7 6 7 7 8 7 7 8 q 7 k k q 6 5 6 Q Y   ",
"    % R P Y T Z +.Q l t ` . M f ~ l +.>.} B j <.-.#.#.-.&.*.Y.C+C+Y.'.=.&.&.&.=.-.8 k k 6 k 6 7 7 8 7 7 8 6 7 5 q 6 k 5 p E     ",
"    * g@O Z Z u y ~ { f . f { t y Z o V ..h 2 j x &.&.-.#.-.&.&.-.-.-.-.&.&.=.<.6 k 5 6 6 6 7 q 7 q 7 8 6 q 6 k q 6 k k P a     ",
"      > = A y ~ s . . ] s ` t Q a O U | w i 2 2 4 6 @.&.&.&.&.&.-.-.-.&.=.@.q k 5 j 5 k k 7 7 7 7 7 8 7 q q k 6 q k 5 5 E       ",
"      b d ~ M s H H ] f { E A a o V ..1 4 2 1 0 2 2 3 p 7 r #.#.#.<.C 7 j 4 p 4 p j j j 6 7 8 8 7 7 9 6 7 q k q q 6 5 9.u       ",
"        J & ! ] ! H f { t A a T V N i i 2 4 3 1 0 3 p 4 3 3 4 4 3 p 4 4 p 3 2 4 p 5 j k 7 7 8 8 8 9 7 7 7 6 7 q q k 6 ` o       ",
"        ; g@H ! f . s t A Z ;.V 9.w 0 0 i 0 4 3 2 3 2 3 p j 5 k j 4 3 2 0 2 4 4 4 j 6 6 7 7 q 8 9 8 8 7 6 q 7 q 6 q ..l         ",
"          * , . s ~ ~ l Z T V 9.| 0 0 2 3 2 h 2 p j p 4 p 4 p j j p 4 4 4 4 3 3 4 k k 7 7 q 7 8 8 7 7 q q 7 8 7 q k {           ",
"          * # + ` y %.Q $.} g w 1 0 2 2 1 2 3 2 0 2 p j j 5 5 k 5 j p 4 4 3 3 p j 5 q 6 q q 8 q 7 7 7 6 8 8 7 q q a a           ",
"            K $ ~ u a T ;...| 0 0 2 3 2 3 2 0 2 p 4 4 4 p p 5 5 5 j 4 4 j j p 4 j 5 k q 6 7 6 7 7 7 q 7 7 q 7 7 } `             ",
"              + J +.D } g 9.h 0 3 4 2 4 3 2 3 p 4 3 p j 5 k k 6 6 5 5 j p j j p j 5 6 q q k 7 q q k 7 q 6 q 7 B &               ",
"                + K } v B 1 h 1 3 3 3 2 4 4 3 3 3 p j k q q q q 7 k k 5 j j j 5 5 6 6 k 6 7 7 6 k q q k q 7 3 _ %.              ",
"                + % . B w 0 3 1 1 2 2 3 4 4 4 4 p 4 4 j 5 6 q 6 6 k 5 p p j 5 k k j j q q q k 6 q 6 k 6 6 3 ; t                 ",
"                  - & { 0 0 0 3 2 h 0 3 3 p p 4 3 4 p 5 5 k 6 q q 6 k 5 k k k 5 j k 6 q k k q q k k k k 1 s E                   ",
"                    % & ] 0 2 2 3 3 0 1 3 4 4 4 p p 4 p j 5 k k k k j 4 p p 5 k k k k k 6 6 6 k k k 6 N ~ Z                     ",
"                        @ @ N p 0 2 3 4 2 0 2 3 3 4 4 j 5 k k k k k 5 5 5 k 6 6 k 5 k q 6 k k 6 q 6 Y M }                       ",
"                          @ % >.p 2 3 3 3 4 3 0 0 0 4 p 5 k k k 6 k 5 k 5 5 k k q 6 k k 6 q 6 7 0 l E                           ",
"                            K & H U j 3 2 2 2 0 3 2 4 4 p j 5 5 5 j p p j k 6 q q 6 6 q q 8 5 $.! Q                             ",
"                                b ; ] P j 2 0 1 0 2 2 4 j 5 k k k k 5 k k 6 6 q 7 q 7 7 5 T ! `                                 ",
"                                    + @ H $.w 3 2 1 1 2 4 j j 5 5 5 5 5 5 6 q 7 9 8 0 >.M t                                     ",
"                                        ] - & b Q B 0 p j j k k 6 6 6 q q q j N %.f f y                                         ",
"                                            ! H ! K @ . y a $.;.o ;.D Q ~ ] b f {                                               ",
"                                                      ] M { ` ` { ~ E y Q                                                       "};
